<?xml version="1.0" encoding="UTF-8" standalone="no"?>
<!DOCTYPE svg PUBLIC "-//W3C//DTD SVG 1.1//EN"
 "http://www.w3.org/Graphics/SVG/1.1/DTD/svg11.dtd">
<!-- Generated by graphviz version 5.0.0 (20220707.1540)
 -->
<!-- Pages: 1 -->
<svg width="1434pt" height="332pt"
 viewBox="0.00 0.00 1434.49 332.00" xmlns="http://www.w3.org/2000/svg" xmlns:xlink="http://www.w3.org/1999/xlink">
<g id="graph0" class="graph" transform="scale(1 1) rotate(0) translate(4 328)">
<polygon fill="white" stroke="transparent" points="-4,4 -4,-328 1430.49,-328 1430.49,4 -4,4"/>
<!-- [root] local_file.dog (expand) -->
<g id="node1" class="node">
<title>[root] local_file.dog (expand)</title>
<polygon fill="none" stroke="black" points="617.36,-180 525.36,-180 525.36,-144 617.36,-144 617.36,-180"/>
<text text-anchor="middle" x="571.36" y="-158.3" font-family="Times,serif" font-size="14.00">local_file.dog</text>
</g>
<!-- [root] local_file.pet (expand) -->
<g id="node2" class="node">
<title>[root] local_file.pet (expand)</title>
<polygon fill="none" stroke="black" points="615.36,-108 527.36,-108 527.36,-72 615.36,-72 615.36,-108"/>
<text text-anchor="middle" x="571.36" y="-86.3" font-family="Times,serif" font-size="14.00">local_file.pet</text>
</g>
<!-- [root] local_file.dog (expand)&#45;&gt;[root] local_file.pet (expand) -->
<g id="edge1" class="edge">
<title>[root] local_file.dog (expand)&#45;&gt;[root] local_file.pet (expand)</title>
<path fill="none" stroke="black" d="M571.36,-143.7C571.36,-135.98 571.36,-126.71 571.36,-118.11"/>
<polygon fill="black" stroke="black" points="574.86,-118.1 571.36,-108.1 567.86,-118.1 574.86,-118.1"/>
</g>
<!-- [root] provider[&quot;registry.terraform.io/hashicorp/local&quot;] -->
<g id="node4" class="node">
<title>[root] provider[&quot;registry.terraform.io/hashicorp/local&quot;]</title>
<polygon fill="none" stroke="black" points="257.36,-36 0.14,-18 257.36,0 514.59,-18 257.36,-36"/>
<text text-anchor="middle" x="257.36" y="-14.3" font-family="Times,serif" font-size="14.00">provider[&quot;registry.terraform.io/hashicorp/local&quot;]</text>
</g>
<!-- [root] local_file.pet (expand)&#45;&gt;[root] provider[&quot;registry.terraform.io/hashicorp/local&quot;] -->
<g id="edge2" class="edge">
<title>[root] local_file.pet (expand)&#45;&gt;[root] provider[&quot;registry.terraform.io/hashicorp/local&quot;]</title>
<path fill="none" stroke="black" d="M527.04,-79.12C474.6,-67.43 386.7,-47.83 325.56,-34.2"/>
<polygon fill="black" stroke="black" points="326.14,-30.75 315.61,-31.99 324.61,-37.58 326.14,-30.75"/>
</g>
<!-- [root] var.content -->
<g id="node8" class="node">
<title>[root] var.content</title>
<polygon fill="none" stroke="black" points="603.86,-36 532.86,-36 532.86,0 609.86,0 609.86,-30 603.86,-36"/>
<polyline fill="none" stroke="black" points="603.86,-36 603.86,-30 "/>
<polyline fill="none" stroke="black" points="609.86,-30 603.86,-30 "/>
<text text-anchor="middle" x="571.36" y="-14.3" font-family="Times,serif" font-size="14.00">var.content</text>
</g>
<!-- [root] local_file.pet (expand)&#45;&gt;[root] var.content -->
<g id="edge3" class="edge">
<title>[root] local_file.pet (expand)&#45;&gt;[root] var.content</title>
<path fill="none" stroke="black" d="M571.36,-71.7C571.36,-63.98 571.36,-54.71 571.36,-46.11"/>
<polygon fill="black" stroke="black" points="574.86,-46.1 571.36,-36.1 567.86,-46.1 574.86,-46.1"/>
</g>
<!-- [root] var.filename -->
<g id="node9" class="node">
<title>[root] var.filename</title>
<polygon fill="none" stroke="black" points="706.86,-36 627.86,-36 627.86,0 712.86,0 712.86,-30 706.86,-36"/>
<polyline fill="none" stroke="black" points="706.86,-36 706.86,-30 "/>
<polyline fill="none" stroke="black" points="712.86,-30 706.86,-30 "/>
<text text-anchor="middle" x="670.36" y="-14.3" font-family="Times,serif" font-size="14.00">var.filename</text>
</g>
<!-- [root] local_file.pet (expand)&#45;&gt;[root] var.filename -->
<g id="edge4" class="edge">
<title>[root] local_file.pet (expand)&#45;&gt;[root] var.filename</title>
<path fill="none" stroke="black" d="M595.58,-71.88C608.29,-62.89 624.03,-51.76 637.79,-42.03"/>
<polygon fill="black" stroke="black" points="639.91,-44.82 646.05,-36.19 635.87,-39.11 639.91,-44.82"/>
</g>
<!-- [root] output.pet&#45;name -->
<g id="node3" class="node">
<title>[root] output.pet&#45;name</title>
<polygon fill="none" stroke="black" points="920.36,-252 820.36,-252 820.36,-216 926.36,-216 926.36,-246 920.36,-252"/>
<polyline fill="none" stroke="black" points="920.36,-252 920.36,-246 "/>
<polyline fill="none" stroke="black" points="926.36,-246 920.36,-246 "/>
<text text-anchor="middle" x="873.36" y="-230.3" font-family="Times,serif" font-size="14.00">output.pet&#45;name</text>
</g>
<!-- [root] random_pet.my&#45;pet (expand) -->
<g id="node6" class="node">
<title>[root] random_pet.my&#45;pet (expand)</title>
<polygon fill="none" stroke="black" points="1102.86,-180 977.86,-180 977.86,-144 1102.86,-144 1102.86,-180"/>
<text text-anchor="middle" x="1040.36" y="-158.3" font-family="Times,serif" font-size="14.00">random_pet.my&#45;pet</text>
</g>
<!-- [root] output.pet&#45;name&#45;&gt;[root] random_pet.my&#45;pet (expand) -->
<g id="edge5" class="edge">
<title>[root] output.pet&#45;name&#45;&gt;[root] random_pet.my&#45;pet (expand)</title>
<path fill="none" stroke="black" d="M914.22,-215.88C937.15,-206.26 965.95,-194.19 990.23,-184.01"/>
<polygon fill="black" stroke="black" points="991.77,-187.16 999.64,-180.07 989.07,-180.71 991.77,-187.16"/>
</g>
<!-- [root] provider[&quot;registry.terraform.io/hashicorp/random&quot;] -->
<g id="node5" class="node">
<title>[root] provider[&quot;registry.terraform.io/hashicorp/random&quot;]</title>
<polygon fill="none" stroke="black" points="1113.36,-108 841.22,-90 1113.36,-72 1385.51,-90 1113.36,-108"/>
<text text-anchor="middle" x="1113.36" y="-86.3" font-family="Times,serif" font-size="14.00">provider[&quot;registry.terraform.io/hashicorp/random&quot;]</text>
</g>
<!-- [root] random_pet.my&#45;pet (expand)&#45;&gt;[root] provider[&quot;registry.terraform.io/hashicorp/random&quot;] -->
<g id="edge9" class="edge">
<title>[root] random_pet.my&#45;pet (expand)&#45;&gt;[root] provider[&quot;registry.terraform.io/hashicorp/random&quot;]</title>
<path fill="none" stroke="black" d="M1058.41,-143.7C1067.7,-134.79 1079.14,-123.81 1089.18,-114.19"/>
<polygon fill="black" stroke="black" points="1091.73,-116.59 1096.53,-107.14 1086.89,-111.54 1091.73,-116.59"/>
</g>
<!-- [root] random_pet.new&#45;pet (expand) -->
<g id="node7" class="node">
<title>[root] random_pet.new&#45;pet (expand)</title>
<polygon fill="none" stroke="black" points="1249.86,-180 1120.86,-180 1120.86,-144 1249.86,-144 1249.86,-180"/>
<text text-anchor="middle" x="1185.36" y="-158.3" font-family="Times,serif" font-size="14.00">random_pet.new&#45;pet</text>
</g>
<!-- [root] random_pet.new&#45;pet (expand)&#45;&gt;[root] provider[&quot;registry.terraform.io/hashicorp/random&quot;] -->
<g id="edge10" class="edge">
<title>[root] random_pet.new&#45;pet (expand)&#45;&gt;[root] provider[&quot;registry.terraform.io/hashicorp/random&quot;]</title>
<path fill="none" stroke="black" d="M1167.57,-143.7C1158.41,-134.79 1147.12,-123.81 1137.21,-114.19"/>
<polygon fill="black" stroke="black" points="1139.58,-111.61 1129.97,-107.14 1134.7,-116.62 1139.58,-111.61"/>
</g>
<!-- [root] provider[&quot;registry.terraform.io/hashicorp/local&quot;] (close) -->
<g id="node10" class="node">
<title>[root] provider[&quot;registry.terraform.io/hashicorp/local&quot;] (close)</title>
<ellipse fill="none" stroke="black" cx="571.36" cy="-234" rx="230.96" ry="18"/>
<text text-anchor="middle" x="571.36" y="-230.3" font-family="Times,serif" font-size="14.00">[root] provider[&quot;registry.terraform.io/hashicorp/local&quot;] (close)</text>
</g>
<!-- [root] provider[&quot;registry.terraform.io/hashicorp/local&quot;] (close)&#45;&gt;[root] local_file.dog (expand) -->
<g id="edge6" class="edge">
<title>[root] provider[&quot;registry.terraform.io/hashicorp/local&quot;] (close)&#45;&gt;[root] local_file.dog (expand)</title>
<path fill="none" stroke="black" d="M571.36,-215.7C571.36,-207.98 571.36,-198.71 571.36,-190.11"/>
<polygon fill="black" stroke="black" points="574.86,-190.1 571.36,-180.1 567.86,-190.1 574.86,-190.1"/>
</g>
<!-- [root] provider[&quot;registry.terraform.io/hashicorp/random&quot;] (close) -->
<g id="node11" class="node">
<title>[root] provider[&quot;registry.terraform.io/hashicorp/random&quot;] (close)</title>
<ellipse fill="none" stroke="black" cx="1185.36" cy="-234" rx="241.26" ry="18"/>
<text text-anchor="middle" x="1185.36" y="-230.3" font-family="Times,serif" font-size="14.00">[root] provider[&quot;registry.terraform.io/hashicorp/random&quot;] (close)</text>
</g>
<!-- [root] provider[&quot;registry.terraform.io/hashicorp/random&quot;] (close)&#45;&gt;[root] random_pet.my&#45;pet (expand) -->
<g id="edge7" class="edge">
<title>[root] provider[&quot;registry.terraform.io/hashicorp/random&quot;] (close)&#45;&gt;[root] random_pet.my&#45;pet (expand)</title>
<path fill="none" stroke="black" d="M1150.26,-216.05C1130.55,-206.54 1105.76,-194.57 1084.71,-184.41"/>
<polygon fill="black" stroke="black" points="1086.17,-181.23 1075.64,-180.03 1083.13,-187.53 1086.17,-181.23"/>
</g>
<!-- [root] provider[&quot;registry.terraform.io/hashicorp/random&quot;] (close)&#45;&gt;[root] random_pet.new&#45;pet (expand) -->
<g id="edge8" class="edge">
<title>[root] provider[&quot;registry.terraform.io/hashicorp/random&quot;] (close)&#45;&gt;[root] random_pet.new&#45;pet (expand)</title>
<path fill="none" stroke="black" d="M1185.36,-215.7C1185.36,-207.98 1185.36,-198.71 1185.36,-190.11"/>
<polygon fill="black" stroke="black" points="1188.86,-190.1 1185.36,-180.1 1181.86,-190.1 1188.86,-190.1"/>
</g>
<!-- [root] root -->
<g id="node12" class="node">
<title>[root] root</title>
<ellipse fill="none" stroke="black" cx="873.36" cy="-306" rx="47.39" ry="18"/>
<text text-anchor="middle" x="873.36" y="-302.3" font-family="Times,serif" font-size="14.00">[root] root</text>
</g>
<!-- [root] root&#45;&gt;[root] output.pet&#45;name -->
<g id="edge11" class="edge">
<title>[root] root&#45;&gt;[root] output.pet&#45;name</title>
<path fill="none" stroke="black" d="M873.36,-287.7C873.36,-279.98 873.36,-270.71 873.36,-262.11"/>
<polygon fill="black" stroke="black" points="876.86,-262.1 873.36,-252.1 869.86,-262.1 876.86,-262.1"/>
</g>
<!-- [root] root&#45;&gt;[root] provider[&quot;registry.terraform.io/hashicorp/local&quot;] (close) -->
<g id="edge12" class="edge">
<title>[root] root&#45;&gt;[root] provider[&quot;registry.terraform.io/hashicorp/local&quot;] (close)</title>
<path fill="none" stroke="black" d="M833.88,-295.85C787.71,-285.15 710.1,-267.16 651.21,-253.51"/>
<polygon fill="black" stroke="black" points="651.72,-250.03 641.19,-251.19 650.14,-256.85 651.72,-250.03"/>
</g>
<!-- [root] root&#45;&gt;[root] provider[&quot;registry.terraform.io/hashicorp/random&quot;] (close) -->
<g id="edge13" class="edge">
<title>[root] root&#45;&gt;[root] provider[&quot;registry.terraform.io/hashicorp/random&quot;] (close)</title>
<path fill="none" stroke="black" d="M913.2,-296.06C960.81,-285.38 1041.75,-267.22 1103.01,-253.48"/>
<polygon fill="black" stroke="black" points="1104.06,-256.83 1113.05,-251.22 1102.53,-250 1104.06,-256.83"/>
</g>
</g>
</svg>
